<?xml version="1.0" encoding="utf-8"?>
<!-- Generator: Adobe Illustrator 27.8.0, SVG Export Plug-In . SVG Version: 6.00 Build 0)  -->
<svg version="1.1" id="Calque_1" xmlns="http://www.w3.org/2000/svg" xmlns:xlink="http://www.w3.org/1999/xlink" x="0px" y="0px"
	 viewBox="0 0 56 70" style="enable-background:new 0 0 56 70;" xml:space="preserve">
<style type="text/css">
	.st0{fill:url(#SVGID_1_);}
</style>
<linearGradient id="SVGID_1_" gradientUnits="userSpaceOnUse" x1="-2.8954" y1="66.8939" x2="-1.8954" y2="65.8939" gradientTransform="matrix(56.0082 0 0 -70 165.0245 4693)">
	<stop  offset="0" style="stop-color:#747BFF"/>
	<stop  offset="1" style="stop-color:#24EB5C"/>
</linearGradient>
<path class="st0" d="M35,70H0V0h35c2.9,0,5.7,0.6,8.2,1.7c2.5,1.1,4.7,2.6,6.6,4.5c1.9,1.9,3.4,4.1,4.5,6.6c1.1,2.6,1.7,5.3,1.7,8.2
	c0,1.1-0.1,2.1-0.3,3.2c-0.1,0.3-0.1,0.5-0.2,0.8c-0.4,1.4-0.9,2.7-1.5,4c-0.7,1.2-1.5,2.4-2.4,3.4C50.8,33.3,50,34,49,34.7
	c-0.1,0.1-0.3,0.2-0.4,0.3c1.1,0.7,2.1,1.5,3,2.5c0.9,1.1,1.7,2.2,2.4,3.5c0.7,1.3,1.2,2.6,1.5,4c0.3,1,0.4,2,0.5,3c0,0.3,0,0.7,0,1
	c0,2.9-0.6,5.7-1.7,8.2c-1.1,2.5-2.6,4.7-4.5,6.6c-1.9,1.9-4.1,3.5-6.6,4.6C40.7,69.5,37.9,70,35,70z M14,14v14h21
	c0.8,0,1.6-0.1,2.3-0.3c0.1-0.1,0.3-0.1,0.4-0.2c0.9-0.3,1.6-0.8,2.3-1.5c0.6-0.6,1.1-1.4,1.5-2.2C41.8,22.9,42,22,42,21
	c0-0.8-0.1-1.6-0.4-2.3c0-0.1-0.1-0.3-0.1-0.4c-0.4-0.9-0.9-1.6-1.5-2.3c-0.7-0.6-1.4-1.1-2.3-1.4c-0.8-0.4-1.6-0.6-2.5-0.6
	c-0.1,0-0.1,0-0.2,0H14z M14,42v14h21c0.8,0,1.6-0.1,2.3-0.4c0.1,0,0.3-0.1,0.4-0.1c0.9-0.4,1.6-0.9,2.3-1.5
	c0.6-0.6,1.1-1.4,1.5-2.2c0.3-0.8,0.5-1.7,0.5-2.6c0-0.1,0-0.1,0-0.2c0-0.8-0.1-1.6-0.4-2.3c0-0.1-0.1-0.3-0.1-0.4
	c-0.4-0.9-0.9-1.6-1.5-2.3c-0.7-0.6-1.4-1.2-2.3-1.5c-0.8-0.4-1.6-0.6-2.5-0.6c-0.1,0-0.1,0-0.2,0L14,42L14,42z"/>
</svg>
